<svg width="21" height="29" viewBox="0 0 21 29" fill="none" xmlns="http://www.w3.org/2000/svg">
<path d="M10.5004 13.0953C11.3359 13.0953 12.1371 12.6528 12.7278 11.8652C13.3185 11.0775 13.6504 10.0092 13.6504 8.89531C13.6504 7.7814 13.3185 6.71312 12.7278 5.92546C12.1371 5.13781 11.3359 4.69531 10.5004 4.69531C9.66499 4.69531 8.86377 5.13781 8.27303 5.92546C7.68229 6.71312 7.35042 7.7814 7.35042 8.89531C7.35042 10.0092 7.68229 11.0775 8.27303 11.8652C8.86377 12.6528 9.66499 13.0953 10.5004 13.0953ZM6.30042 11.6953C6.30042 12.4379 6.07917 13.1501 5.68534 13.6752C5.29152 14.2003 4.75737 14.4953 4.20042 14.4953C3.64347 14.4953 3.10932 14.2003 2.7155 13.6752C2.32167 13.1501 2.10042 12.4379 2.10042 11.6953C2.10042 10.9527 2.32167 10.2405 2.7155 9.71541C3.10932 9.19031 3.64347 8.89531 4.20042 8.89531C4.75737 8.89531 5.29152 9.19031 5.68534 9.71541C6.07917 10.2405 6.30042 10.9527 6.30042 11.6953ZM1.56492 21.9517C1.38567 21.8159 1.25144 21.5949 1.18902 21.3329C1.00402 20.534 1.00208 19.6796 1.18345 18.8792C1.36482 18.0787 1.72125 17.3687 2.20709 16.84C2.69293 16.3113 3.28608 15.988 3.91056 15.9115C4.53504 15.835 5.16244 16.0087 5.71242 16.4105C4.58223 17.8914 3.87485 19.8515 3.71217 21.9531C3.68802 22.2639 3.69747 22.5719 3.73842 22.8687C2.97209 22.7804 2.22988 22.4672 1.56492 21.9517ZM17.2624 22.8673C18.0287 22.7794 18.7709 22.4667 19.4359 21.9517C19.6148 21.8156 19.7486 21.5947 19.8108 21.3329C19.9961 20.5339 19.9982 19.6793 19.817 18.8786C19.6357 18.0779 19.2793 17.3676 18.7934 16.8387C18.3075 16.3098 17.7143 15.9864 17.0896 15.9098C16.465 15.8333 15.8374 16.0071 15.2874 16.4091C16.4185 17.8899 17.1267 19.8506 17.2897 21.9531C17.3131 22.2585 17.3039 22.5668 17.2624 22.8687V22.8673ZM18.9004 11.6953C18.9004 12.4379 18.6792 13.1501 18.2853 13.6752C17.8915 14.2003 17.3574 14.4953 16.8004 14.4953C16.2435 14.4953 15.7093 14.2003 15.3155 13.6752C14.9217 13.1501 14.7004 12.4379 14.7004 11.6953C14.7004 10.9527 14.9217 10.2405 15.3155 9.71541C15.7093 9.19031 16.2435 8.89531 16.8004 8.89531C17.3574 8.89531 17.8915 9.19031 18.2853 9.71541C18.6792 10.2405 18.9004 10.9527 18.9004 11.6953ZM5.56962 23.1613C5.46607 23.0377 5.38578 22.8833 5.33526 22.7106C5.28473 22.5379 5.26538 22.3518 5.27877 22.1673C5.41233 20.4446 6.02011 18.849 6.98466 17.6891C7.9492 16.5291 9.20202 15.8871 10.5009 15.8871C11.7999 15.8871 13.0527 16.5291 14.0172 17.6891C14.9818 18.849 15.5896 20.4446 15.7231 22.1673C15.7366 22.3518 15.7173 22.5379 15.6667 22.7106C15.6162 22.8833 15.5359 23.0377 15.4323 23.1613C14.0822 24.795 12.3236 25.6986 10.5004 25.6953C8.67756 25.6984 6.91938 24.7948 5.56962 23.1613Z" fill="#FAFAFA" fill-opacity="0.75"/>
</svg>
