<svg width="40" height="40" viewBox="0 0 40 40" fill="none" xmlns="http://www.w3.org/2000/svg">
<path fill-rule="evenodd" clip-rule="evenodd" d="M18.5856 4.5763C18.9606 4.20135 19.4692 3.99072 19.9996 3.99072C20.5299 3.99072 21.0385 4.20135 21.4136 4.5763L35.4136 18.5763C35.6932 18.856 35.8836 19.2123 35.9607 19.6002C36.0379 19.9881 35.9983 20.3902 35.8469 20.7556C35.6956 21.121 35.4393 21.4333 35.1105 21.6531C34.7817 21.8729 34.3951 21.9902 33.9996 21.9903H31.9996V33.9903C31.9996 34.5207 31.7889 35.0294 31.4138 35.4045C31.0387 35.7796 30.53 35.9903 29.9996 35.9903H25.9996C25.4691 35.9903 24.9604 35.7796 24.5854 35.4045C24.2103 35.0294 23.9996 34.5207 23.9996 33.9903V27.9903C23.9996 27.4599 23.7889 26.9512 23.4138 26.5761C23.0387 26.201 22.53 25.9903 21.9996 25.9903H17.9996C17.4691 25.9903 16.9604 26.201 16.5854 26.5761C16.2103 26.9512 15.9996 27.4599 15.9996 27.9903V33.9903C15.9996 34.5207 15.7889 35.0294 15.4138 35.4045C15.0387 35.7796 14.53 35.9903 13.9996 35.9903H9.99957C9.46914 35.9903 8.96043 35.7796 8.58536 35.4045C8.21029 35.0294 7.99957 34.5207 7.99957 33.9903V21.9903H5.99957C5.60407 21.9902 5.21748 21.8729 4.88866 21.6531C4.55984 21.4333 4.30356 21.121 4.15222 20.7556C4.00088 20.3902 3.96127 19.9881 4.03841 19.6002C4.11554 19.2123 4.30595 18.856 4.58557 18.5763L18.5856 4.5763Z" fill="#525252" fill-opacity="0.75"/>
</svg>
