<svg width="40" height="40" viewBox="0 0 40 40" fill="none" xmlns="http://www.w3.org/2000/svg">
<path d="M7.5 5.99023C6.57174 5.99023 5.6815 6.35898 5.02513 7.01536C4.36875 7.67174 4 8.56198 4 9.49023V16.0102C5.04478 15.3418 6.25968 14.9877 7.5 14.9902H32.5C33.788 14.9902 34.99 15.3662 36 16.0102V13.4902C36 12.562 35.6313 11.6717 34.9749 11.0154C34.3185 10.359 33.4283 9.99023 32.5 9.99023H22.828C22.7623 9.99035 22.6972 9.97752 22.6365 9.95247C22.5757 9.92741 22.5205 9.89064 22.474 9.84423L19.646 7.01623C18.99 6.35975 18.1001 5.9907 17.172 5.99023H7.5ZM7.5 17.9902C6.57174 17.9902 5.6815 18.359 5.02513 19.0154C4.36875 19.6717 4 20.562 4 21.4902V30.4902C4 32.4222 5.568 33.9902 7.5 33.9902H32.5C33.4283 33.9902 34.3185 33.6215 34.9749 32.9651C35.6313 32.3087 36 31.4185 36 30.4902V21.4902C36 20.562 35.6313 19.6717 34.9749 19.0154C34.3185 18.359 33.4283 17.9902 32.5 17.9902H7.5Z" fill="#525252" fill-opacity="0.75"/>
</svg>
