<svg width="25" height="26" viewBox="0 0 25 26" fill="none" xmlns="http://www.w3.org/2000/svg">
<path fill-rule="evenodd" clip-rule="evenodd" d="M7.55134 6.77668V8.01357H5.90256C5.36111 8.01369 4.83937 8.21673 4.44026 8.58264C4.04116 8.94854 3.79368 9.45073 3.74665 9.99013L2.72498 21.7406C2.69892 22.0395 2.73526 22.3404 2.83169 22.6245C2.92811 22.9085 3.08252 23.1694 3.28512 23.3906C3.48771 23.6118 3.73407 23.7885 4.00856 23.9094C4.28305 24.0304 4.57969 24.093 4.87965 24.0932H20.1182C20.4183 24.0931 20.715 24.0307 20.9897 23.9098C21.2643 23.7889 21.5108 23.6123 21.7135 23.3911C21.9163 23.1698 22.0708 22.9089 22.1673 22.6248C22.2638 22.3406 22.3002 22.0396 22.2741 21.7406L21.2524 9.99013C21.2054 9.45052 20.9577 8.94815 20.5584 8.58222C20.159 8.21628 19.6369 8.01338 19.0953 8.01357H17.4465V6.77668C17.4465 5.4645 16.9252 4.20606 15.9974 3.27821C15.0695 2.35036 13.8111 1.8291 12.4989 1.8291C11.1867 1.8291 9.9283 2.35036 9.00045 3.27821C8.0726 4.20606 7.55134 5.4645 7.55134 6.77668ZM12.4989 3.68444C11.6788 3.68444 10.8923 4.01023 10.3124 4.59014C9.73247 5.17005 9.40668 5.95657 9.40668 6.77668V8.01357H15.5912V6.77668C15.5912 5.95657 15.2654 5.17005 14.6855 4.59014C14.1056 4.01023 13.319 3.68444 12.4989 3.68444ZM9.40668 12.9612C9.40668 13.7813 9.73247 14.5678 10.3124 15.1477C10.8923 15.7276 11.6788 16.0534 12.4989 16.0534C13.319 16.0534 14.1056 15.7276 14.6855 15.1477C15.2654 14.5678 15.5912 13.7813 15.5912 12.9612V11.415C15.5912 11.169 15.6889 10.933 15.8629 10.7591C16.0368 10.5851 16.2728 10.4874 16.5188 10.4874C16.7649 10.4874 17.0008 10.5851 17.1748 10.7591C17.3488 10.933 17.4465 11.169 17.4465 11.415V12.9612C17.4465 14.2733 16.9252 15.5318 15.9974 16.4596C15.0695 17.3875 13.8111 17.9087 12.4989 17.9087C11.1867 17.9087 9.9283 17.3875 9.00045 16.4596C8.0726 15.5318 7.55134 14.2733 7.55134 12.9612V11.415C7.55134 11.169 7.64908 10.933 7.82305 10.7591C7.99702 10.5851 8.23298 10.4874 8.47901 10.4874C8.72504 10.4874 8.961 10.5851 9.13497 10.7591C9.30895 10.933 9.40668 11.169 9.40668 11.415V12.9612Z" fill="#FAFAFA"/>
</svg>
