<svg width="29" height="29" viewBox="0 0 29 29" fill="none" xmlns="http://www.w3.org/2000/svg">
<mask id="mask0_504_18363" style="mask-type:luminance" maskUnits="userSpaceOnUse" x="0" y="0" width="29" height="29">
<path d="M0.5 0.495117H28.5V28.4951H0.5V0.495117Z" fill="white"/>
</mask>
<g mask="url(#mask0_504_18363)">
<path d="M14.5 3.01862C18.238 3.01862 18.6813 3.03262 20.1583 3.10028C23.9523 3.27295 25.7245 5.07312 25.8972 8.83912C25.9648 10.3149 25.9777 10.7583 25.9777 14.4963C25.9777 18.2343 25.9637 18.6776 25.8972 20.1535C25.7233 23.916 23.9558 25.7196 20.1583 25.8923C18.6813 25.9599 18.2403 25.974 14.5 25.974C10.762 25.974 10.3187 25.9599 8.84283 25.8923C5.0395 25.7184 3.27667 23.9101 3.104 20.1523C3.03633 18.6765 3.02233 18.2343 3.02233 14.4951C3.02233 10.7559 3.03633 10.3149 3.104 8.83795C3.27783 5.07312 5.04533 3.27178 8.84283 3.09912C10.3198 3.03262 10.762 3.01862 14.5 3.01862ZM14.5 0.495117C10.6978 0.495117 10.2218 0.511451 8.7285 0.579117C3.64417 0.81245 0.8185 3.63345 0.585167 8.72245C0.516333 10.217 0.5 10.693 0.5 14.4951C0.5 18.2973 0.516333 18.7745 0.584 20.2678C0.817333 25.3521 3.63833 28.1778 8.72733 28.4111C10.2218 28.4788 10.6978 28.4951 14.5 28.4951C18.3022 28.4951 18.7793 28.4788 20.2727 28.4111C25.3523 28.1778 28.185 25.3568 28.4148 20.2678C28.4837 18.7745 28.5 18.2973 28.5 14.4951C28.5 10.693 28.4837 10.217 28.416 8.72362C28.1873 3.64395 25.3628 0.813617 20.2738 0.580284C18.7793 0.511451 18.3022 0.495117 14.5 0.495117ZM14.5 7.30612C13.5559 7.30612 12.6211 7.49207 11.7489 7.85335C10.8767 8.21463 10.0842 8.74417 9.41661 9.41173C8.74905 10.0793 8.21951 10.8718 7.85823 11.744C7.49695 12.6162 7.311 13.551 7.311 14.4951C7.311 15.4392 7.49695 16.374 7.85823 17.2462C8.21951 18.1184 8.74905 18.9109 9.41661 19.5785C10.0842 20.2461 10.8767 20.7756 11.7489 21.1369C12.6211 21.4982 13.5559 21.6841 14.5 21.6841C16.4066 21.6841 18.2352 20.9267 19.5834 19.5785C20.9316 18.2303 21.689 16.4018 21.689 14.4951C21.689 12.5885 20.9316 10.7599 19.5834 9.41173C18.2352 8.06353 16.4066 7.30612 14.5 7.30612ZM14.5 19.1618C13.2623 19.1618 12.0753 18.6701 11.2002 17.7949C10.325 16.9198 9.83333 15.7328 9.83333 14.4951C9.83333 13.2574 10.325 12.0705 11.2002 11.1953C12.0753 10.3201 13.2623 9.82845 14.5 9.82845C15.7377 9.82845 16.9247 10.3201 17.7998 11.1953C18.675 12.0705 19.1667 13.2574 19.1667 14.4951C19.1667 15.7328 18.675 16.9198 17.7998 17.7949C16.9247 18.6701 15.7377 19.1618 14.5 19.1618ZM21.9737 5.34262C21.753 5.34262 21.5344 5.38609 21.3305 5.47054C21.1266 5.555 20.9414 5.67879 20.7853 5.83485C20.6293 5.99091 20.5055 6.17617 20.421 6.38007C20.3366 6.58397 20.2931 6.8025 20.2931 7.0232C20.2931 7.2439 20.3366 7.46243 20.421 7.66633C20.5055 7.87023 20.6293 8.0555 20.7853 8.21155C20.9414 8.36761 21.1266 8.4914 21.3305 8.57586C21.5344 8.66031 21.753 8.70378 21.9737 8.70378C22.4194 8.70378 22.8468 8.52672 23.162 8.21155C23.4772 7.89638 23.6542 7.46892 23.6542 7.0232C23.6542 6.57748 23.4772 6.15002 23.162 5.83485C22.8468 5.51968 22.4194 5.34262 21.9737 5.34262Z" fill="#525252" fill-opacity="0.75"/>
</g>
</svg>
