<svg width="25" height="25" viewBox="0 0 25 25" fill="none" xmlns="http://www.w3.org/2000/svg">
<path fill-rule="evenodd" clip-rule="evenodd" d="M7.65977 6.48619V7.69635H6.04662C5.51687 7.69647 5.0064 7.89512 4.61592 8.25312C4.22544 8.61112 3.9833 9.10246 3.93729 9.63021L2.93769 21.1268C2.9122 21.4192 2.94775 21.7137 3.0421 21.9916C3.13644 22.2695 3.28751 22.5247 3.48573 22.7411C3.68395 22.9576 3.92498 23.1304 4.19354 23.2488C4.4621 23.3671 4.75233 23.4283 5.04581 23.4286H19.9551C20.2487 23.4285 20.539 23.3674 20.8077 23.2491C21.0764 23.1309 21.3176 22.958 21.516 22.7416C21.7143 22.5251 21.8655 22.2698 21.9599 21.9918C22.0543 21.7139 22.0899 21.4193 22.0644 21.1268L21.0648 9.63021C21.0188 9.10225 20.7765 8.61074 20.3857 8.25271C19.995 7.89469 19.4842 7.69617 18.9543 7.69635H17.3411V6.48619C17.3411 5.20236 16.8311 3.97111 15.9233 3.06331C15.0155 2.15551 13.7843 1.64551 12.5005 1.64551C11.2166 1.64551 9.98538 2.15551 9.07757 3.06331C8.16977 3.97111 7.65977 5.20236 7.65977 6.48619ZM12.5005 3.46076C11.6981 3.46076 10.9285 3.77951 10.3612 4.34689C9.79378 4.91426 9.47503 5.68379 9.47503 6.48619V7.69635H15.5259V6.48619C15.5259 5.68379 15.2071 4.91426 14.6397 4.34689C14.0724 3.77951 13.3028 3.46076 12.5005 3.46076ZM9.47503 12.537C9.47503 13.3394 9.79378 14.109 10.3612 14.6763C10.9285 15.2437 11.6981 15.5625 12.5005 15.5625C13.3028 15.5625 14.0724 15.2437 14.6397 14.6763C15.2071 14.109 15.5259 13.3394 15.5259 12.537V11.0243C15.5259 10.7836 15.6215 10.5527 15.7917 10.3825C15.9619 10.2123 16.1928 10.1167 16.4335 10.1167C16.6742 10.1167 16.9051 10.2123 17.0753 10.3825C17.2455 10.5527 17.3411 10.7836 17.3411 11.0243V12.537C17.3411 13.8209 16.8311 15.0521 15.9233 15.9599C15.0155 16.8677 13.7843 17.3777 12.5005 17.3777C11.2166 17.3777 9.98538 16.8677 9.07757 15.9599C8.16977 15.0521 7.65977 13.8209 7.65977 12.537V11.0243C7.65977 10.7836 7.7554 10.5527 7.92561 10.3825C8.09582 10.2123 8.32668 10.1167 8.5674 10.1167C8.80812 10.1167 9.03898 10.2123 9.20919 10.3825C9.3794 10.5527 9.47503 10.7836 9.47503 11.0243V12.537Z" fill="#FAFAFA"/>
</svg>
