<svg width="29" height="29" viewBox="0 0 29 29" fill="none" xmlns="http://www.w3.org/2000/svg">
<path fill-rule="evenodd" clip-rule="evenodd" d="M9.86246 8.38445V9.54404H8.31673C7.80912 9.54415 7.31999 9.7345 6.94583 10.0775C6.57167 10.4206 6.33966 10.8914 6.29557 11.3971L5.33775 22.4132C5.31332 22.6933 5.34739 22.9755 5.43779 23.2417C5.52819 23.508 5.67295 23.7526 5.86288 23.96C6.05281 24.1674 6.28377 24.333 6.54111 24.4464C6.79844 24.5598 7.07654 24.6185 7.35775 24.6187H21.6439C21.9252 24.6186 22.2034 24.5601 22.4609 24.4468C22.7184 24.3334 22.9495 24.1678 23.1395 23.9604C23.3296 23.753 23.4744 23.5084 23.5649 23.242C23.6554 22.9757 23.6895 22.6934 23.665 22.4132L22.7072 11.3971C22.6631 10.8912 22.4309 10.4202 22.0565 10.0771C21.6821 9.73408 21.1927 9.54386 20.6849 9.54404H19.1392V8.38445C19.1392 7.15428 18.6505 5.9745 17.7806 5.10464C16.9108 4.23478 15.731 3.74609 14.5008 3.74609C13.2706 3.74609 12.0909 4.23478 11.221 5.10464C10.3511 5.9745 9.86246 7.15428 9.86246 8.38445ZM14.5008 5.48548C13.732 5.48548 12.9946 5.7909 12.4509 6.33457C11.9073 6.87823 11.6018 7.61559 11.6018 8.38445V9.54404H17.3998V8.38445C17.3998 7.61559 17.0944 6.87823 16.5507 6.33457C16.007 5.7909 15.2697 5.48548 14.5008 5.48548ZM11.6018 14.1824C11.6018 14.9512 11.9073 15.6886 12.4509 16.2323C12.9946 16.7759 13.732 17.0814 14.5008 17.0814C15.2697 17.0814 16.007 16.7759 16.5507 16.2323C17.0944 15.6886 17.3998 14.9512 17.3998 14.1824V12.7329C17.3998 12.5022 17.4914 12.281 17.6545 12.1179C17.8176 11.9548 18.0388 11.8632 18.2695 11.8632C18.5001 11.8632 18.7213 11.9548 18.8844 12.1179C19.0475 12.281 19.1392 12.5022 19.1392 12.7329V14.1824C19.1392 15.4126 18.6505 16.5923 17.7806 17.4622C16.9108 18.3321 15.731 18.8207 14.5008 18.8207C13.2706 18.8207 12.0909 18.3321 11.221 17.4622C10.3511 16.5923 9.86246 15.4126 9.86246 14.1824V12.7329C9.86246 12.5022 9.95409 12.281 10.1172 12.1179C10.2803 11.9548 10.5015 11.8632 10.7322 11.8632C10.9628 11.8632 11.184 11.9548 11.3471 12.1179C11.5102 12.281 11.6018 12.5022 11.6018 12.7329V14.1824Z" fill="#FAFAFA"/>
</svg>
